<?xml version="1.0" encoding="iso-8859-1"?>
<!-- Generator: Adobe Illustrator 18.1.1, SVG Export Plug-In . SVG Version: 6.00 Build 0)  -->
<svg xmlns="http://www.w3.org/2000/svg" xmlns:xlink="http://www.w3.org/1999/xlink" version="1.1" id="Capa_1" x="0px" y="0px" viewBox="0 0 326.38 326.38" style="enable-background:new 0 0 326.38 326.38;" xml:space="preserve" width="512px" height="512px">
<g>
	<path d="M320.275,88.792c-9.709-16.546-17.742-16.143-20.614-15.295v-0.005l-0.016,0.011   c-0.723,0.218-1.131,0.457-1.131,0.457l0.092,0.152L46.092,222.326c5.956,1.327,12.967,7.299,18.286,16.372   c3.291,5.608,5.504,11.58,6.222,16.807c0.462,3.378,0.223,5.918-0.354,7.859l253.52-148.807l-0.185-0.315   C325.72,112.153,329.989,105.338,320.275,88.792z" fill="#FFFFFF"/>
	<path d="M5.968,116.15l2.486,0.81h0.005l76.925,25.052c-0.37-1.327-0.647-2.779-0.794-4.384   c-0.538-5.771,0.397-12.847,2.632-19.929c2.611-8.267,7.141-16.513,12.276-21.169L60.342,83.783l2.785-7.636l88.178,30.122   c3.138,1.072,6.402-0.163,7.288-2.752l0.354-1.028c0.887-2.594-0.941-5.564-4.079-6.641L28.921,52.823   c-3.138-1.071-6.402,0.163-7.288,2.752l-0.354,1.028c-0.887,2.594,0.941,5.564,4.079,6.641l19.564,6.685l-2.877,7.898   l-18.841-6.135h-0.005l-2.48-0.81l-0.141,0.43C16.28,71.191,7.66,73.225,2.226,89.896c-5.428,16.671,0.337,23.393,3.883,25.83   L5.968,116.15z" fill="#FFFFFF"/>
	<path d="M107.994,98.843c-0.016,0-0.033,0-0.049,0c-0.245,0-0.544,0.12-0.816,0.179   c-3.867,0.903-10.204,8.082-14.125,20.505c-1.996,6.326-2.839,12.559-2.377,17.536c0.359,3.845,1.556,6.636,3.051,7.109   c2.687,0.859,8.436-4.27,12.76-14.522c0.691-1.632,1.349-3.372,1.947-5.26c0.441-1.403,0.81-2.817,1.148-4.232   c1.164-4.933,1.675-9.801,1.365-13.815c-0.261-3.41-1.061-5.624-1.942-6.723C108.641,99.219,108.315,98.941,107.994,98.843z" fill="#FFFFFF"/>
	<path d="M54.735,267.492l0.321-0.19l3.666-2.154l4.194-2.458l-0.174-0.299l0,0   c0.457-0.267,1.224-2.061,0.691-5.901c-0.256-1.844-0.805-3.873-1.523-5.95c-0.941-2.709-2.197-5.504-3.769-8.186   c-1.724-2.937-3.525-5.298-5.276-7.223c-3.693-4.063-7.131-6.005-8.947-6.005c-0.402,0-0.571,0.098-0.625,0.131l-0.141-0.245   l-4.378,2.567l-3.65,2.143l-0.419,0.25L5.174,273.943l42.969-5.488c-0.158-2.997-0.691-5.929-1.605-8.757   c-1.093-3.383-2.709-6.63-4.868-9.687c-1.066-1.507-0.587-2.943,0.457-3.873c0.952-0.843,2.361-1.207,3.644-0.761   c0.625,0.218,1.229,0.571,1.697,1.229c1.882,2.66,3.345,5.461,4.493,8.344c0.936,2.344,1.648,4.748,2.121,7.207   c0.31,1.626,0.511,3.274,0.631,4.933C54.718,267.231,54.729,267.362,54.735,267.492z" fill="#FFFFFF"/>
</g>
<g>
</g>
<g>
</g>
<g>
</g>
<g>
</g>
<g>
</g>
<g>
</g>
<g>
</g>
<g>
</g>
<g>
</g>
<g>
</g>
<g>
</g>
<g>
</g>
<g>
</g>
<g>
</g>
<g>
</g>
</svg>
