<?xml version="1.0" encoding="utf-8"?>
<!-- Generator: Adobe Illustrator 16.0.0, SVG Export Plug-In . SVG Version: 6.00 Build 0)  -->
<!DOCTYPE svg PUBLIC "-//W3C//DTD SVG 1.1//EN" "http://www.w3.org/Graphics/SVG/1.1/DTD/svg11.dtd">
<svg version="1.1" id="Layer_1" xmlns="http://www.w3.org/2000/svg" xmlns:xlink="http://www.w3.org/1999/xlink" x="0px" y="0px"
	 width="358.237px" height="550.77px" viewBox="0 0 358.237 550.77" enable-background="new 0 0 358.237 550.77"
	 xml:space="preserve">
<g>
	<path fill="#0D0B10" d="M271.021,350.542c13.044,12.338,8.11,8.021,26.616,22.825c18.506,14.805,8.637,0.076,32.076,27.797
		c23.441,27.721,29.609,42.525,28.375,49.311c-1.232,6.785-6.168,2.467-24.983,6.169c-18.813,3.701-10.178-5.552-37.937,16.039
		c-27.759,21.589-35.912,41.329-59.285,52.433c-23.372,11.104-89.045,28.375-127.767,25.292
		c-38.719-3.086-47.973-1.852-67.095-24.059c-19.123-22.206-14.54-16.655-15.907-49.348c-1.366-32.696-3.314-54.902-4.19-78.96
		c-0.876-24.059-6.426-25.49-2.108-40.196c4.317-14.703,1.232-23.957,13.569-34.136c12.338-10.178,19.499-18.019,28.233-18.716
		c8.735-0.697,21.733,6.379,35.557,19.949c12.531,12.304-1.729,10.597-0.497,32.902c1.232,22.308-2.253,6.114,12.89,22.771
		c15.143,16.655-2.192,12.183,39.171,10.332c41.364-1.851,56.443-10.949,74.331-18.814
		C239.96,364.267,271.021,350.542,271.021,350.542z"/>
	<path fill="#DBAF91" d="M204.489,217.302c0.924,17.579,2.544,33.078,3.238,40.711c0.695,7.635,4.627,18.043,7.865,25.908
		c3.239,7.866,5.552,12.955,9.021,19.201s1.85,3.007,7.402,13.186c5.552,10.179,8.328,12.49,11.103,15.729
		c2.776,3.239,2.776,3.239,2.776,3.239l-7.633,4.858c0,0-12.26,7.634-16.654,9.945c-4.396,2.314-17.582,9.023-25.678,12.725
		c-8.098,3.7-22.207,9.716-34.931,12.954c-12.721,3.238-16.886,4.857-28.452,4.857c-11.565,0-25.907-3.008-29.609-5.553
		c-3.701-2.543-7.402-9.021-8.097-12.49c-0.693-3.47-2.08-6.709-3.238-12.03c-1.156-5.32-3.238-7.727-3.47-15.545
		c-0.23-7.818,83.739-92.481,93.455-99.423c9.715-6.938,9.946-11.565,12.259-17.118
		C196.161,212.906,204.489,217.302,204.489,217.302z"/>
	<path fill="#967762" d="M138.143,307.364c-0.287,1.472,52.262-83.87,52.467-77.212c1.851,59.938-44.963,130.717-61.983,132.113
		c-18.816,1.541-26.74,0.925-34.015-6.17c-7.275-7.095-6.478-27.99-9.514-36.317C82.434,312.473,138.143,307.364,138.143,307.364z"
		/>
	<path fill="#F6C8A7" d="M51.354,65.089c-22.208,22.208-22.67,26.372-27.297,48.579c-4.626,22.207-3.701,27.759,0,38.863
		c3.701,11.104,12.028,12.028,10.179,25.909c-1.852,13.878-3.701,21.281-0.925,37.011c2.774,15.729,0.569,12.953,9.074,37.013
		c8.506,24.056,18.685,39.786,21.459,51.814c2.776,12.03,12.954,23.134,19.432,26.835c6.477,3.701,17.581,6.477,30.535,0
		c12.953-6.478,29.609-20.357,37.936-26.835c8.328-6.477,12.03-13.877,19.432-22.206c7.402-8.327,12.953-15.73,13.88-26.834
		c0.925-11.104,5.551-37.936,5.551-44.413s15.962-23.596,13.186-50.43c-2.776-26.833-6.708-25.444-9.483-52.278
		c-2.776-26.833-3.238-22.439-18.044-43.72c-14.805-21.282-23.132-22.901-46.264-24.752c-23.132-1.852-43.951,3.239-50.428,6.014
		C73.099,48.434,51.354,65.089,51.354,65.089z"/>
	<path fill="#F6C8A7" d="M200.325,232.337c13.186-5.553,15.499-8.56,20.819-13.881c5.319-5.32,5.783-9.021,7.864-14.109
		c2.083-5.089,4.858-12.954,6.246-19.2c1.389-6.246,0.231-9.715-1.156-15.267c-1.389-5.553-4.626-9.947-7.864-11.799
		c-3.239-1.85-4.462-3.006-8.13-2.313c-3.669,0.695-6.214-0.462-10.84,3.701c-4.626,4.165-7.633,7.634-10.641,14.805
		c-3.007,7.171-0.309,0.463-4.78,11.335c-4.474,10.873-7.712,14.34-6.555,24.057c1.156,9.716-3.366,11.713-0.234,16.655
		c3.132,4.94,5.093,5.553,9.257,6.015C198.476,232.8,200.325,232.337,200.325,232.337z"/>
	<path fill="#110308" d="M185.521,155.075l-15.498-6.246l-64.539,8.039c0,0,2.775,6.304-6.478,5.146
		c-9.253-1.157-22.438-1.388-32.154,4.165c-9.714,5.551-52.51,13.648-58.061,13.648c-5.553,0-8.791,0-8.791,0v3.7l64.076-10.177
		c0,0,9.716-7.866,17.35-8.328c7.635-0.463,10.872-0.231,16.655,1.157c5.783,1.388,49.734-7.284,58.524-9.311
		c8.79-2.024,13.88-3.644,13.88-3.644l15.035,5.783l5.089,0.695"/>
	<path fill="#EFDCD0" d="M171.797,177.513c13.117,2.762-0.888,21.282-6.613,35.471c-5.725,14.188-14.979,3.702-21.146-2.468
		c-6.169-6.169-9.87-18.066,1.234-23.837C156.374,180.906,165.937,176.279,171.797,177.513z"/>
	<path fill="#31262C" d="M68.935,64.858c11.797,0.23,16.654,1.62,27.065-1.85c10.409-3.47,10.872-4.164,25.214-4.627
		c14.342-0.462,23.363,0.232,32.385,2.546c9.021,2.312,10.64,2.775,14.573,9.252c3.932,6.477,4.858,13.186,5.319,18.97
		c0.462,5.781-1.388,13.647-2.775,18.273c-1.389,4.627-1.389,8.327,0.231,13.417c1.619,5.089,3.47,7.866,6.478,13.186
		c3.008,5.321,6.707,9.715,9.021,15.499c2.313,5.784-0.925,11.798,0,15.731c0.925,3.932,1.156,4.626,2.083,9.252
		c0.925,4.626,2.775,14.574,2.775,14.574l2.082-11.567l1.852,5.089v-13.186l2.543,2.545v-5.32l5.09,1.387l-2.083-3.47
		c0,0,7.404-2.775,10.179-4.395c2.775-1.62,2.313-10.179,2.313-12.262c0-2.082,1.619,0.233,2.313,1.158
		c0.694,0.925-2.775-18.738-2.313-21.514c0.462-2.775,2.405-0.693,2.405-0.693s-2.636-12.954-2.405-19.895
		c0.231-6.939-0.23-19.662-1.851-22.901c-1.619-3.238-6.245-5.088-7.865-6.476c-1.619-1.388,0.694-3.701-0.693-5.784
		c-1.389-2.08-5.321-8.096-9.022-10.871c-3.7-2.776-2.313-6.94-4.163-11.104c-1.852-4.165-2.083-4.627-6.94-8.328
		c-4.857-3.703-9.947-9.022-9.947-9.022c-3.238-6.015,0.694-3.471-4.395-8.792c-5.088-5.32-5.319-3.005-12.954-6.938
		c-7.633-3.933-8.096-6.478-14.804-8.328c-6.707-1.85-9.253-2.313-9.253-2.313l5.783,5.089c0,0-8.096-3.239-15.036-5.089
		c-6.939-1.852-8.096-0.231-17.35-2.545c-9.253-2.314-17.812-5.089-12.491-2.544c5.321,2.544,4.396,4.395,4.396,4.395
		S94.38,5.64,85.589,4.483c-8.79-1.157-2.313,2.313-2.313,2.313s-2.082,0.693-6.478,1.157c-4.395,0.463-3.007,1.851-9.253,4.163
		c-6.244,2.314-15.267,6.246-20.819,8.097c-5.551,1.851,4.396,2.082,4.396,2.082s-4.626,1.85-7.634,3.933s-4.396,6.478-5.32,7.866
		c-0.926,1.387,4.857-1.388,4.857-1.388s-1.851,1.619-3.934,5.321c-2.082,3.701-3.007,1.388-6.244,3.238
		c-3.238,1.85-2.775,0.231-6.479,4.163c-3.701,3.933-7.864,7.866-9.483,10.872c-1.618,3.008-3.47,7.402-3.47,10.411
		c0,3.008,1.156,9.253,1.156,9.946c0,0.694,3.47,2.082,3.933,3.239c0.462,1.157,1.62-11.567,2.081-7.634
		c0.463,3.933,1.157,7.864,1.619,9.947c0.463,2.083,1.62,2.313,0.231,5.553c-1.388,3.238-1.156,5-2.774,6.78
		c-1.62,1.777,1.85,7.33,1.85,7.33s0.925,0.463-0.926,5.088c-1.85,4.627,0.232,6.478-0.924,12.03
		c-1.157,5.55-1.157,7.401-1.157,13.647c0,6.247-1.851,11.797-1.851,11.797l3.008-1.388l-0.463,6.709l1.387-2.545l-0.461,7.171
		l1.618-2.543l0.462,5.551l1.158-3.47c0,0,4.163,12.261,3.238,0.925c-0.927-11.335-2.313-14.805-2.313-19.43
		c0-4.629-0.463-10.875,0.463-16.656c0.924-5.784,1.387-10.179,3.007-17.119c1.619-6.939,3.238-8.558,5.321-14.341
		c2.081-5.784,7.633-10.41,12.49-12.493c4.857-2.08,8.327-5.781,12.955-7.169C63.151,66.248,68.935,64.858,68.935,64.858z"/>
	<path fill="#31262C" d="M65.189,137.816c-4.812,8.902-6.434,12.954-17.305,12.261c-10.874-0.695-18.274,0.23-21.978,2.776
		c-3.701,2.545,6.246-10.179,15.731-9.022C51.123,144.986,68.58,131.547,65.189,137.816z"/>
	<path fill="#31262C" d="M97.607,132.367c3.384,4.004,6.694,7.143,15.282,7.797c4.328,0.329,18.281-5.02,28.836-1.261
		c10.554,3.758,1.116-4.602-7.352-5.585c-8.471-0.984-11.963,1.485-23.689,0.207C107.248,133.15,96.847,131.468,97.607,132.367z"/>
	<path fill="#110308" d="M68.162,191.084c-8.019,28.067-46.264,36.395-58.909,8.019c-14.242-31.958,14.968-47.424,41.329-41.021
		C72.173,163.325,71.72,178.636,68.162,191.084z"/>
	<path fill="#110308" d="M98.081,155.734c-6.53,19.845,4.854,44.949,27.141,46.3c38.16,2.313,48.347-41.914,33.311-56.212
		C139.72,127.932,103.171,140.27,98.081,155.734z"/>
	<path fill="#EFDCD0" d="M133.396,73.222c0,0-20.356,2.159-22.823,16.655c-2.467,14.496-1.235,22.825,9.869,28.685
		c11.104,5.86,29.301,17.272,35.777,4.626c6.479-12.646,7.402-29.61,2.776-37.938S147.584,72.605,133.396,73.222z"/>
	<path fill="#EFDCD0" d="M87.209,173.927c0,0,0.101,12.122-0.463,20.937c-0.618,9.637-2.848,12.308-5.63,19.971
		c-3.16,8.712,0,18.196,8.328,14.496c8.328-3.701,20.047-2.776,21.898-3.394s0.951-6.478-3.227-11.411
		c-4.176-4.936-6.334-12.337-9.418-19.739C95.612,187.383,87.672,171.73,87.209,173.927z"/>
	<path fill="#DBA17B" d="M71.067,209.24c3.649-0.485-9.96,12.92-6.876,17.545c3.086,4.627,3.664,0.643,7.365,5.757
		c3.701,5.116,1.455,4.541-1.542,0.721c-2.7-3.442-8.638-2.39-8.944-7.325C60.761,221.001,68.333,209.602,71.067,209.24z"/>
	<path fill="#DBA17B" d="M112.258,228.559c0,0-4.743-1.968-10.411,0c-5.667,1.966-6.014,4.858-9.599,8.097
		c-3.586,3.237-3.471,3.237-6.361,3.47c-2.893,0.231,2.775,1.04,7.17,0c4.396-1.042,3.47-4.974,8.907-7.404
		C107.399,230.294,112.026,230.41,112.258,228.559z"/>
	<path fill="#DBA17B" d="M126.302,221.812c6.86,0.687,11.22,5.32,15.731,9.6c4.51,4.28,6.478,7.75,8.096,11.221
		c1.618,3.469-3.933-4.744-8.905-9.022c-4.975-4.279-9.601-7.287-13.303-9.137C124.222,222.623,122.832,221.464,126.302,221.812z"/>
	<path fill="#31262C" d="M74.139,242.516c-2.125,0.594-5.319,1.388-9.021,4.278s-5.552,5.089-8.329,9.832
		c-2.774,4.742-2.08,6.244-2.08,7.749c0,1.503,5.666-6.709,11.219-7.864c5.552-1.158,9.466-2.66,13.986-2.083
		c4.521,0.578,5.097-0.81,6.37-2.775c1.271-1.968,2.66-2.197,4.163,0c1.503,2.198,1.851,2.198,6.94,1.272s1.734,0,14.11-1.272
		c12.377-1.272,13.186-2.659,18.853-1.272c5.667,1.388,13.186,7.402,12.029,4.048s-2.313-6.246-6.015-9.136
		c-3.701-2.894-6.824-5.322-13.417-6.363s-9.369-1.387-17.233,0c-7.864,1.389-9.137,1.157-12.491,3.47
		c-3.354,2.313-5.32,3.008-8.906,1.066C82.128,242.279,77.03,241.706,74.139,242.516z"/>
	<path fill="#DBA17B" d="M61.993,263.41c14.959,1.081,16.656,4.628,22.209,4.938c5.551,0.308,7.711-1.871,15.883-3.788
		c8.174-1.919,9.716-3.151,18.197-5.465c8.482-2.313,19.585-6.631,8.327-5.706c-11.256,0.925-13.262-0.772-22.977,0.615
		c-9.715,1.389-13.475,1.389-18.535,1.389c-5.06,0-6.294-0.616-13.387,1.08c-7.097,1.697-10.197,4.009-10.651,5.243
		C60.606,262.949,61.993,263.41,61.993,263.41z"/>
	<path fill="#967262" d="M65.387,262.178c12.031-0.283,12.954-0.155,24.982-1.233c12.03-1.081,12.338-1.234,22.979-2.469
		c10.643-1.232,19.803-6.19,14.573-4.625c-5.65,1.689-2.748,0.732-14.92,2.427c-12.172,1.697-13.995,1.119-24.019,2.044
		c-10.024,0.927-16.81,1.851-20.973,2.159C63.845,260.791,58.147,262.347,65.387,262.178z"/>
	<path fill="#31262C" d="M81.194,274.734c1.157,11.605,1.793,6.395,3.903,14.449c2.111,8.052,2.748,10.419,0,15.868
		c-2.746,5.446-4.366,4.5-9.917,2.841c-5.552-1.658-7.171-5.685-9.484-7.814c-2.314-2.133-2.695-8.292-3.777-10.186
		c-1.08-1.896-1.744-1.896-0.951,3.554c0.796,5.446,1.489,9.235,2.646,14.684c1.158,5.447,1.388,8.527,2.314,11.844
		c0.924,3.315,3.007,6.631,3.007,6.631l1.08-2.605c0,0,0.771,0.474,1.696,2.605c0.925,2.133,2.063,0,2.063,0
		s1.867,1.896,3.487,4.738c1.62,2.842,2.652,0,2.652,0l1.742,3.315l1.62-2.132c0,0,2.908,0,3.65,2.132c0.745,2.132,3.289,0,3.289,0
		s3.239-1.184,2.082,0.948c-1.156,2.131,3.953,0,3.953,0s4.838-0.237,3.912,0.947c-0.926,1.184,5.089-1.422,5.089-1.422l4.165,0.475
		c0,0-0.099,4.406,2.843,1.256c2.939-3.151,4.79-2.204,4.79-2.204s4.395-4.263,5.089-1.895c0.693,2.368,2.168-2.368,2.168-2.368
		s1.765,0.236,1.995,1.657c0.231,1.422,1.828-0.71,5.078-4.737c3.251-4.026,9.041-7.105,11.119-10.658
		c2.078-3.554,2.772-7.816,3.466-12.08c0.694-4.264,0.463,4.737,0-7.342c-0.462-12.08-1.851-20.369-2.082-22.501
		c-0.23-2.132-0.687-2.37-1.384-1.896c-0.697,0.474,0.234,4.5,0,7.105s-0.466,5.211-2.086,7.106
		c-1.618,1.895-1.85,6.869-4.396,10.895c-2.544,4.027-6.226,12.08-6.584,13.264c-0.354,1.185-2.776,0.476-5.522-0.158
		c-6.629-1.526-6.999-4.15-14.11-1.419c-3.701,1.419-14.228-13.107-11.123-19.029c3.104-5.921,4.251-5.685,4.834-10.896
		c0.584-5.209,1.277-6.566-1.267-7.073c-2.544-0.506-12.492-1.151-15.729,0C83.276,273.787,81.194,274.734,81.194,274.734z"/>
	<path fill="#DBA17B" d="M228.084,165.176c3.9,7.664,2.313,26.217-0.771,32.231c-3.085,6.013-1.389-24.984-6.478-26.371
		c-5.09-1.388-19.586,8.139-15.884,2.681c3.701-5.457,9.252-12.242,14.957-11.625C225.617,162.709,227.155,163.351,228.084,165.176z
		"/>
	<path fill="#DBA17B" d="M204.046,183.954c8.863,5.826,16.791,5.091,17.099,9.873c0.31,4.778-1.048,9.406-5.767,13.569
		c-4.719,4.164-7.031,6.015-6.106,2.005c0.925-4.009,0.308-6.057-2.932-7.039c-3.238-0.98-6.169-4.989-6.015-7.92
		C200.48,191.512,200.058,181.333,204.046,183.954z"/>
	<path fill="#2A2830" d="M231.044,314.529c0,0,19.709,3.939,24.027,9.181s12.954,17.579,14.805,22.514
		c1.851,4.936,3.085,3.701-9.87,11.104c-12.954,7.402-19.123,13.267-40.712,23.289c-21.591,10.021-72.771,26.061-94.987,18.656
		c-22.218-7.401-31.47-23.902-32.086-36.314c-0.617-12.415,2.196,3.064,6.457,7.585s25.32,7.831,43.821,6.523
		s22.788-0.523,42.252-9.25c11.18-5.012,12.702-5.207,30.226-15.112c17.614-9.958,28.951-14.579,22.054-26.68"/>
</g>
</svg>
